<?xml version="1.0" encoding="UTF-8"?>
<svg id="Layer_1" xmlns="http://www.w3.org/2000/svg" version="1.1" viewBox="0 0 3000 3000">
  <!-- Generator: Adobe Illustrator 29.3.1, SVG Export Plug-In . SVG Version: 2.1.0 Build 151)  -->
  <defs>
    <style>
      .st0 {
        fill: #fff;
        stroke: #231f20;
        stroke-miterlimit: 10;
        stroke-width: 40px;
      }
    </style>
  </defs>
  <path class="st0" d="M1939.7,366.7c29,17.6,48.4,39.4,59.9,54.7,7.9,14.3,15.8,28.7,23.7,43,14.2-32.4,38-77.4,77.3-122.1,33.2-37.9,66.8-63.4,92.8-80,21.1-7.6,58.6-17.3,103.9-9.3,9.7,1.7,37.8,7.4,70,26.2,37.2,21.7,60.8,49.8,73.4,67.4,27.9,32.8,59.2,74.7,88.9,126.3,38.6,67.1,59,124.8,77.3,176.9,18.3,52.1,28.6,90.9,42,142.3,15.1,57.7,34.2,137,52.2,233.7,8.6,51.2,16.5,104.5,23.2,160,13,107.3,20.1,208.8,23.2,303.2.6,143.2,1.3,286.4,1.9,429.6,3,102.3-5.6,188.4-15.5,252.7-2.5,16.4-13.5,85.9-38.6,174.8-18.2,64.4-33.8,119.5-67.6,185.3-28.2,54.9-58.4,96.3-81.2,124.2-18,20.1-51.7,52.4-102.4,73.7-64.9,27.2-122.1,21.4-148.8,16.8-27.8-14.5-77.9-45.5-121.7-105.3-40.6-55.3-57.7-110.3-65.2-142.3-7.7-68.8-15.5-137.6-23.2-206.4-10.7-270.3-11.6-451.5-10.1-569.5.7-62.8,2.7-155.7-3.9-284.3-3.5-68.6-5.8-75.6-13.5-210.6-6.5-114-4.7-123.9-11.6-202.1-4.8-54.2-7.2-81.3-11.2-112.8-6.1-46.9-8.3-67.9-12.7-109.8-1.4-13.2-2.9-28.1-2.8-48.2.1-30.2,3.8-53,5.6-63.2,2.8-15.6,6-27.3,8-34.5,6.5-23.5,13.6-40.9,15.9-46.3,6-14.4,10.3-22.1,15.9-35.1.6-1.3,2.3-5.3,4.9-10.4,2.1-4.1,3.9-7.1,4.6-8.2,12.6-21,17.9-34.3,21.5-33.3.9.2,3.3,1.8,2.9,30-.3,21.1-1.8,34.1-2.5,47-.8,15-.3,25.6.7,47,3.7,74.7,12.1,132.7,12.1,132.7,11.6,79.8,18.8,191.2,28.4,338.6,7.5,116,3.3,101.5,13.5,303.2,8.9,175.6,11,163.6,13.9,250.6,4.8,143.4-1.4,161.2,1.6,349.6,1.3,81.2,5.3,149.6,13.5,286.4,7.3,121.7,12.8,181.7,50.2,244.3,19.5,32.6,53.2,89.1,106.3,99,100,18.7,203.3-140.2,247.3-237.9,41.6-92.4,49-180.9,63.8-358,11.3-135.3,8.7-255.8,7.7-294.8-.5-21.3-1.2-53.4-7.7-176.9-12-226.2-18.1-339.3-30-442.1-8.1-69.6-18.4-156.4-42.5-269.5,0,0-32.4-152.5-101.4-316-5.6-13.3-19.9-46.6-46.4-84.2-19-27.1-40.5-57-78.4-80.2-10.6-6.5-38.2-22-76.2-27.2-12.1-1.7-39.5-2.7-71.5,8.4-12.1,4.2-26.8,9.3-42.6,22.2-21.6,17.7-31.9,39.3-40.6,57.9-14.2,30.6-10.6,39.2-25.4,72.7-10.6,24-13.7,20.9-27.7,49.2-28,56.4-37.4,103.2-39.8,116-3.5,18.7-5.1,34.4-5.9,45.4,1.6,5.7,3.3,14.7,1.2,24.7-2.5,12.1-8.7,17.2-15.5,30.3-3.3,6.5-5.2,11.7-10.9,32.6-7.9,29.4-11.9,44.1-15.5,61.9-10.5,52.3-35.6,105.8-56,200-10,46.3-21.6,94.1-34.8,143.2-30,111.3-64.3,212.8-100,304.1-14.7,44.6-40.7,105.1-87.7,164.6-20,25.3-40.3,46.1-59.2,62.8-10,13.1-29.8,35.3-61.1,51.3-28.5,14.6-54.3,17.6-69.6,18.2-17.4,0-40.5-1.8-66.7-9.5-34.5-10.2-60.4-26.4-77.1-39-2.7,15.2-10,45.5-32.4,74.5-16,20.7-33.4,32.7-44.9,39.2-9.3,6.1-22,12.9-37.7,17.6-28.1,8.4-52.3,6.1-66.7,3.4-18.8-6.8-41.6-17.1-65.9-32.6-20.2-12.9-36.8-26.6-50-39-26.7-39.3-53.7-85.1-78.3-137.9-7.1-15.3-13.6-30.3-19.6-45-72.1-179.5-144.3-359-216.4-538.5,11.7-34.7,22.8-56.8,31.1-70.9,2.8-4.7,18.1-30.2,18.1-30.2,5.9,7,14.9,18.1,25.2,32.4,45.7,63.1,65.8,117.3,97.1,191.9,31,73.7,1.8-2.3,57.7,130.8,142.8,340.1,159.6,424.5,212.6,429.6,46.8,4.4,103.4-55.1,108.2-105.3,1.1-11.6-1-18.2-11.1-58.7-9.5-37.9-17.2-76.3-27.5-114-31-113.2-35.2-143-54.1-206.4-60.8-203.8-98.3-324.1-193.4-381.9-18.3-11.1-72.3-44-119.6-22.4-17.7,8.1-31.2,23.6-58,54.7-29.9,34.7-47.8,65.9-55.1,79.4-6.5,11.9-18.4,35.2-31.1,70.9-22.7,64.1-30.1,118.2-33.6,144.5-19.9,152-34.4,336.8-36.2,360.9-2.9,103.2-5.8,206.4-8.7,309.5-1.5,47.9-1.6,86.3-1.4,110.5.1,21.1,1.1,163.4,1.4,243.2.1,32.2,0,60.9-11.3,96.1-7.5,23.3-18.3,56.8-48.1,79.9-38.6,29.9-83.8,22.9-104.3,19.7-11.9-1.8-37.7-7.2-65.9-25.3-42.4-27.2-64.9-67-81.2-100.3-48.9-99.9-69.5-197.7-77.1-235.3-15.4-76.8-33.8-171.2-37.4-300.9-3.2-112.8,6.5-194.5,18.1-293,13.9-117.3,21.5-178.6,49.3-260.6,9.5-27.9,44.8-127.8,109.4-202.9,12.2-14.1,39.9-46,81.9-71.9,22.3-13.7,43.2-22.5,50-25.3,17.7-7.2,33.7-11.9,46.6-15.1,24-3.6,43.9-2.7,58-1.1,20.9,2.5,36.2,4.5,50.5,17,9.5,8.3,15,18.1,18.1,25,6.6-39.9,19.6-64.1,29.5-78.3,6-8.7,17.6-23.1,25.6-33.2,10.7-13.4,19.8-24.3,26.1-31.7,13.1-12.2,37.6-31.8,72.9-43,30.9-9.8,57.5-9.2,73.9-7.5,20.1,3.4,49.9,11.2,82.1,30.1,27.7,16.3,47.7,35.2,60.9,49.9,21.7,25.3,46.8,59,70,101.7,19,35,32.5,68,42,96.2,23.4,60,46.6,126.1,68.1,198.1,19.4,65.1,35.1,127.1,47.8,185.2,13.2-106.2,30.2-217.6,51.7-333.6,14-75.4,29.1-148.1,44.9-218.1,15.5-80.7,44.5-186.8,101.9-299.9,32.2-63.4,66.8-116.2,99-159.1,13.3-21.8,48-72.4,111.6-99.9,35.7-15.5,68-18.2,89.4-18,20.6-.7,64.1.9,109.7,28.6"/>
</svg>